<?xml version="1.0" encoding="UTF-8"?>
<svg width="38px" height="34px" viewBox="0 0 38 34" version="1.1" xmlns="http://www.w3.org/2000/svg" xmlns:xlink="http://www.w3.org/1999/xlink">
    <!-- Generator: Sketch 48.2 (47327) - http://www.bohemiancoding.com/sketch -->
    <title>Shape</title>
    <desc>Created with Sketch.</desc>
    <defs></defs>
    <g id="H5-注册" stroke="none" stroke-width="1" fill="none" fill-rule="evenodd" transform="translate(-81.000000, -1384.000000)">
        <path d="M100,1391.55556 L100,1384 L81,1384 L81,1418 L119,1418 L119,1391.55556 L100,1391.55556 Z M88.6,1414.22222 L84.8,1414.22222 L84.8,1410.44444 L88.6,1410.44444 L88.6,1414.22222 Z M88.6,1406.66667 L84.8,1406.66667 L84.8,1402.88889 L88.6,1402.88889 L88.6,1406.66667 Z M88.6,1399.11111 L84.8,1399.11111 L84.8,1395.33333 L88.6,1395.33333 L88.6,1399.11111 Z M88.6,1391.55556 L84.8,1391.55556 L84.8,1387.77778 L88.6,1387.77778 L88.6,1391.55556 Z M96.2,1414.22222 L92.4,1414.22222 L92.4,1410.44444 L96.2,1410.44444 L96.2,1414.22222 Z M96.2,1406.66667 L92.4,1406.66667 L92.4,1402.88889 L96.2,1402.88889 L96.2,1406.66667 Z M96.2,1399.11111 L92.4,1399.11111 L92.4,1395.33333 L96.2,1395.33333 L96.2,1399.11111 Z M96.2,1391.55556 L92.4,1391.55556 L92.4,1387.77778 L96.2,1387.77778 L96.2,1391.55556 Z M115.2,1414.22222 L100,1414.22222 L100,1410.44444 L103.8,1410.44444 L103.8,1406.66667 L100,1406.66667 L100,1402.88889 L103.8,1402.88889 L103.8,1399.11111 L100,1399.11111 L100,1395.33333 L115.2,1395.33333 L115.2,1414.22222 Z M111.4,1399.11111 L107.6,1399.11111 L107.6,1402.88889 L111.4,1402.88889 L111.4,1399.11111 Z M111.4,1406.66667 L107.6,1406.66667 L107.6,1410.44444 L111.4,1410.44444 L111.4,1406.66667 Z" id="Shape" fill="#8492A6" fill-rule="nonzero"></path>
    </g>
</svg>