<?xml version="1.0" encoding="UTF-8"?>
<svg width="160px" height="43px" viewBox="0 0 160 43" version="1.1" xmlns="http://www.w3.org/2000/svg" xmlns:xlink="http://www.w3.org/1999/xlink">
    <!-- Generator: Sketch 48.2 (47327) - http://www.bohemiancoding.com/sketch -->
    <title>Page 1</title>
    <desc>Created with Sketch.</desc>
    <defs></defs>
    <g id="H5-注册" stroke="none" stroke-width="1" fill="none" fill-rule="evenodd" transform="translate(-295.000000, -1883.000000)">
        <g id="Page-1" transform="translate(295.000000, 1883.000000)" fill="#FFFFFF">
            <g id="Group-43" transform="translate(0.000000, 0.008253)">
                <path d="M99.9119156,7.55423212 C99.9119156,7.38391559 99.9751278,7.23835873 100.10174,7.11756155 C100.228164,6.99695193 100.3831,6.93655334 100.566359,6.93655334 C100.74943,6.93655334 100.904366,6.99695193 101.03079,7.11756155 C101.157402,7.23835873 101.220614,7.38391559 101.220614,7.55423212 C101.220614,7.72154748 101.157402,7.8631653 101.03079,7.97927315 C100.904366,8.09538101 100.74943,8.15352872 100.566359,8.15352872 C100.3831,8.15352872 100.228164,8.09538101 100.10174,7.97927315 C99.9751278,7.8631653 99.9119156,7.72154748 99.9119156,7.55423212" id="Fill-1"></path>
                <path d="M29.1996999,8.35665182 L29.1996999,1.12926612 L28.4606612,1.12926612 C28.1731114,1.12926612 27.9887268,0.823709261 28.1224666,0.569172333 L28.3522438,0.132501758 L29.6288675,0.132501758 C30.0749168,0.132501758 30.436558,0.494143025 30.436558,0.940192263 L30.436558,7.5742837 C30.436558,8.00645252 30.0600985,8.35665182 29.5954795,8.35665182 L29.1996999,8.35665182 Z" id="Fill-3"></path>
                <path d="M34.9947948,8.35665182 L38.4797186,1.67247831 L34.6200234,1.67247831 L34.6200234,1.4353857 C34.6200234,1.01578429 34.9857913,0.675713951 35.4370926,0.675713951 L40.3727081,0.675713951 L36.6664478,7.72603048 C36.4638687,8.11149355 36.0431419,8.35590152 35.5818992,8.35627667 L34.9947948,8.35665182 Z" id="Fill-5"></path>
                <path d="M48.1124502,8.35665182 L43.0898007,8.35665182 L46.3687691,3.96893787 L43.6609613,3.96893787 L43.6609613,2.9616694 L48.3812427,2.9616694 L45.1651114,7.34919578 L47.2897538,7.34919578 C47.7440563,7.34919578 48.1124502,7.69170457 48.1124502,8.11430715 L48.1124502,8.35665182 Z" id="Fill-7"></path>
                <path d="M51.3662274,8.18620399 L51.3660399,0.13255803 L52.066626,0.138372802 C52.3222884,0.138372802 52.5295569,0.331198124 52.5295569,0.568853458 L52.5295569,3.98174912 C52.7764033,3.63530129 53.0673294,3.38245252 53.401585,3.22339039 C53.7358406,3.06451583 54.1428746,2.98479719 54.6219367,2.98479719 C55.0246565,2.98479719 55.3675404,3.04407034 55.6507761,3.16242907 C55.9338242,3.28097538 56.1553482,3.45673154 56.314973,3.68988511 C56.4100727,3.82775147 56.4785369,3.98868933 56.5201782,4.17251114 C56.5621946,4.35633294 56.5830152,4.84852521 56.5830152,5.30789215 L56.5830152,7.55389449 C56.5830152,7.9973177 56.1964267,8.35670809 55.719803,8.35670809 L55.33434,8.35670809 L55.33434,5.77438687 C55.33434,5.11356624 55.2478687,4.50395311 55.0749261,4.28636811 C54.9019836,4.06915826 54.5951137,3.96055334 54.1543165,3.96055334 C53.8654537,3.96055334 53.6079156,4.00988511 53.3818898,4.1089238 C53.1554889,4.20777491 52.9776694,4.347517 52.848619,4.52777491 C52.7572708,4.64800938 52.6936835,4.97307386 52.6576694,5.16214771 C52.6214678,5.35140914 52.6034607,5.65265182 52.6034607,6.06625088 L52.6034607,8.35670809 L51.3662274,8.18620399 Z" id="Fill-9"></path>
                <path d="M68.520422,8.35665182 L68.520422,0.13831653 L69.2238218,0.13831653 C69.5184994,0.13831653 69.7572802,0.360590856 69.7572802,0.634635404 L69.7572802,8.35665182 L68.520422,8.35665182 Z" id="Fill-11"></path>
                <path d="M86.5932567,5.62078312 C86.5932567,5.10120516 86.4630809,4.69642204 86.2027292,4.40643376 C85.9423775,4.11682063 85.5784853,3.97182649 85.1108652,3.97182649 C84.6436202,3.97182649 84.2756014,4.12113482 84.0075592,4.41993904 C83.7398921,4.71855569 83.6059648,5.13290504 83.6059648,5.66317468 C83.6059648,6.19700821 83.7350152,6.60873154 83.9933036,6.89871981 C84.2519672,7.18833294 84.6167972,7.33332708 85.0883564,7.33332708 C85.5330926,7.33332708 85.8947339,7.17614068 86.1742181,6.8615803 C86.4537022,6.54683236 86.5932567,6.13323329 86.5932567,5.62078312 M86.8749918,8.14983353 L86.559306,8.14983353 L86.559306,7.49764127 C86.3385322,7.78762954 86.0811817,8.0033388 85.7865041,8.14458148 C85.4920141,8.28601172 85.1545698,8.35672685 84.7745463,8.35672685 C84.0107479,8.35672685 83.4092005,8.11363189 82.970279,7.62762954 C82.53117,7.1416272 82.3117093,6.47611723 82.3117093,5.63147479 C82.3117093,4.82903634 82.5360469,4.18134584 82.9845346,3.68821571 C83.4326471,3.19508558 84.0184385,2.94842673 84.740408,2.94842673 C85.1813927,2.94842673 85.558415,3.03414771 85.8722251,3.20558968 C86.18566,3.37703165 86.4144994,3.6236905 86.559306,3.94537866 L86.559306,3.83977491 C86.559306,3.44418288 86.9040657,3.12343259 87.3292943,3.12343259 L87.7961641,3.12343259 L87.7961641,7.2931864 C87.7961641,7.76643376 87.3836905,8.14983353 86.8749918,8.14983353" id="Fill-13"></path>
                <path d="M109.596811,7.99602345 C109.368722,8.11625791 109.124314,8.20629308 108.863962,8.2665041 C108.603611,8.32671512 108.327315,8.35672685 108.034513,8.35672685 C107.18687,8.35672685 106.496038,8.10556624 105.962016,7.60380774 C105.428183,7.10186166 105.161079,6.45154513 105.161079,5.65267057 C105.161079,4.84310434 105.437562,4.18997421 105.990528,3.69346776 C106.543494,3.19696131 107.266776,2.94842673 108.16,2.94842673 C108.441172,2.94842673 108.699836,2.97412427 108.935428,3.02533177 C109.170832,3.07672685 109.391231,3.15532005 109.596811,3.26129894 L109.088488,3.92005627 C108.999766,4.03503869 108.851958,4.08643376 108.710903,4.05192028 C108.530645,4.00784056 108.28286,3.95588277 108.11442,3.95588277 C107.608722,3.95588277 107.203939,4.10781712 106.90007,4.41187339 C106.596014,4.71592966 106.443892,5.11883705 106.443892,5.62078312 C106.443892,6.14392497 106.596577,6.55471043 106.902884,6.85351465 C107.208628,7.15231887 107.631606,7.3016272 108.171442,7.3016272 C108.407597,7.3016272 108.623494,7.2693646 108.819508,7.20483939 C108.917233,7.17276436 109.024338,7.21252989 109.084924,7.29562485 L109.596811,7.99602345 Z" id="Fill-15"></path>
                <path d="M119.672385,8.35665182 L118.435151,8.35665182 L118.435151,3.87552638 C118.435151,3.57447128 118.697566,3.33025088 119.021505,3.33025088 L119.598481,3.33025088 L119.598481,4.15219695 C119.845327,3.80218523 120.125749,3.54671043 120.439184,3.38596014 C120.752807,3.22520985 121.122513,3.14455334 121.548117,3.14455334 C121.96997,3.14455334 122.319419,3.22671043 122.597215,3.39121219 C122.874635,3.55571395 123.08528,3.80574912 123.230087,4.14150528 C123.515011,3.79524502 123.818129,3.54239625 124.139254,3.38314654 C124.46038,3.22427198 124.826335,3.14455334 125.236558,3.14455334 C125.593885,3.14455334 125.905632,3.20570223 126.171798,3.32762485 C126.437777,3.44954748 126.645046,3.62717937 126.793229,3.86033294 C126.861693,3.97006331 126.911962,4.10098945 126.944225,4.2529238 C126.976675,4.40485815 126.992994,4.62225557 126.992994,4.90492849 L126.992994,5.30783587 L126.992994,7.47149355 C126.992994,7.9603095 126.566828,8.35665182 126.041247,8.35665182 L125.755573,8.35665182 L125.755573,5.77451817 C125.755573,5.09944197 125.678481,4.65489332 125.524858,4.44105979 C125.370673,4.22722626 125.096066,4.1203095 124.701036,4.1203095 C124.214284,4.1203095 123.867461,4.26436577 123.660567,4.55247831 C123.453299,4.84059086 123.349758,5.34497538 123.349758,6.06619461 L123.349758,8.35665182 L122.101083,8.35665182 L122.101083,5.77451817 C122.101083,5.15252521 122.020239,4.72129426 121.858739,4.48082532 C121.697426,4.24035639 121.418879,4.1203095 121.023475,4.1203095 C120.780192,4.1203095 120.557918,4.17170457 120.356652,4.273932 C120.155011,4.37672216 119.995198,4.51796483 119.87759,4.69822274 C119.801435,4.81489332 119.748352,4.95801172 119.717777,5.12757796 C119.687578,5.29733177 119.672385,5.61020399 119.672385,6.06619461 L119.672385,8.35665182 Z" id="Fill-17"></path>
                <path d="M93.2930363,2.96403283 C91.8082063,2.96403283 90.6045487,4.1676905 90.6045487,5.65252052 C90.6045487,7.13735053 91.8082063,8.34119578 93.2930363,8.34119578 C94.7778664,8.34119578 95.981524,7.13735053 95.981524,5.65252052 C95.981524,4.1676905 94.7778664,2.96403283 93.2930363,2.96403283 M93.2930363,3.90189918 C94.2582884,3.90189918 95.0436577,4.68726846 95.0436577,5.65252052 C95.0436577,6.61796014 94.2582884,7.40332943 93.2930363,7.40332943 C92.3277843,7.40332943 91.542415,6.61796014 91.542415,5.65252052 C91.542415,4.68726846 92.3277843,3.90189918 93.2930363,3.90189918" id="Fill-19"></path>
                <path d="M114.10808,2.96403283 C112.62325,2.96403283 111.419592,4.1676905 111.419592,5.65252052 C111.419592,7.13735053 112.62325,8.34119578 114.10808,8.34119578 C115.59291,8.34119578 116.796567,7.13735053 116.796567,5.65252052 C116.796567,4.1676905 115.59291,2.96403283 114.10808,2.96403283 M114.10808,3.90189918 C115.073332,3.90189918 115.858701,4.68726846 115.858701,5.65252052 C115.858701,6.61796014 115.073332,7.40332943 114.10808,7.40332943 C113.142828,7.40332943 112.357458,6.61796014 112.357458,5.65252052 C112.357458,4.68726846 113.142828,3.90189918 114.10808,3.90189918" id="Fill-21"></path>
                <path d="M61.6038265,8.35004924 L61.6038265,2.95506682 L62.1080234,2.95506682 C62.512619,2.95506682 62.8406846,3.26024853 62.8406846,3.63652052 L62.8406846,8.35004924 L61.6038265,8.35004924 Z" id="Fill-23"></path>
                <path d="M61.4382368,0.854133646 C61.4382368,0.659807737 61.5153294,0.49192966 61.6691395,0.350499414 C61.8233247,0.209256741 62.0065838,0.138354045 62.2192919,0.138354045 C62.4398781,0.138354045 62.6231372,0.206443142 62.7696319,0.342621336 C62.9157515,0.478611958 62.988905,0.649303634 62.988905,0.854133646 C62.988905,1.0593388 62.9150012,1.23153107 62.7668183,1.37127315 C62.6186354,1.51082767 62.435939,1.58060492 62.2192919,1.58060492 C62.0065838,1.58060492 61.8233247,1.50913951 61.6691395,1.36583353 C61.5153294,1.22271512 61.4382368,1.05221102 61.4382368,0.854133646" id="Fill-25"></path>
                <path d="M75.4543681,8.35665182 L75.4543681,2.9616694 L75.9291161,2.9616694 C76.3500305,2.9616694 76.6912263,3.27904338 76.6912263,3.67050879 L76.6912263,8.35665182 L75.4543681,8.35665182 Z" id="Fill-27"></path>
                <path d="M75.2887784,0.854133646 C75.2887784,0.659807737 75.365871,0.49192966 75.5196811,0.350499414 C75.6738664,0.209256741 75.8571254,0.138354045 76.0698335,0.138354045 C76.2904197,0.138354045 76.4736788,0.206443142 76.6201735,0.342621336 C76.7662931,0.478611958 76.8394467,0.649303634 76.8394467,0.854133646 C76.8394467,1.0593388 76.7655428,1.23153107 76.6173599,1.37127315 C76.469177,1.51082767 76.2864807,1.58060492 76.0698335,1.58060492 C75.8571254,1.58060492 75.6738664,1.50913951 75.5196811,1.36583353 C75.365871,1.22271512 75.2887784,1.05221102 75.2887784,0.854133646" id="Fill-29"></path>
                <path d="M20.9954513,38.8043517 L23.5837749,38.8043517 L23.607034,38.8043517 C24.5767878,38.8043517 25.3694725,38.0291114 25.3932943,37.0595451 C25.393857,37.0368488 25.3944197,37.01434 25.3949824,36.9925815 L25.3949824,18.4560281 L23.171864,18.4560281 C21.9698945,18.4560281 20.9954513,19.4302837 20.9954513,20.6322532 L20.9954513,38.8043517 Z M16.5953576,41.7807644 L16.5953576,17.4740821 C16.5953576,16.2295334 17.6043142,15.2205768 18.8488628,15.2205768 L29.7950762,15.2205768 L29.7950762,37.122007 C29.8140211,37.8345979 29.816272,38.8394279 29.8130832,39.7337773 C29.8087691,40.8729097 28.8875967,41.7950199 27.7484642,41.798959 C26.8935053,41.8019601 25.9438218,41.7993341 25.2655569,41.7807644 L16.5953576,41.7807644 Z M0,22.5160516 L0,19.1509871 C1.00164127,17.3545979 1.43118406,16.9250551 2.33378664,14.6539179 C2.54611958,13.4307526 3.63291911,12.5521594 4.87427902,12.5521594 L6.59957796,12.5521594 C6.51273154,13.4155592 6.38330598,14.2345041 6.21130129,15.0106823 L12.5674091,15.0106823 C13.4165533,15.0106823 14.1051348,15.6990762 14.1051348,16.548408 L14.1051348,18.1165205 L10.3521688,18.1165205 L10.3546073,23.7527222 L12.8221336,23.7527222 C13.9603283,23.7527222 14.8828136,24.6759578 14.8820633,25.8141524 L14.8811254,26.933027 L10.6110199,26.933027 C10.773646,30.3620539 12.0573974,35.0847737 14.4620868,38.2793341 C14.7310668,38.6368488 14.8811254,39.0690176 14.8811254,39.5165674 L14.8811254,42.0564971 C11.3429308,39.8990293 9.05810082,35.5353247 8.02269637,32.6016788 C6.55512309,36.0528394 4.01144197,40.4591231 0.387901524,42.1859226 L0.387901524,40.0053834 C0.387901524,39.3404361 0.639249707,38.7038124 1.08098476,38.2069308 C3.75127784,35.2035076 5.24511137,30.515864 5.56436108,26.933027 L2.40525205,26.933027 C1.14963658,26.933027 0.131864009,25.9150668 0.131864009,24.6594513 L0.131864009,23.7527222 L5.82546307,23.7527222 L5.82321219,18.1165205 L5.17608441,18.1165205 C4.22565064,20.1871419 2.50091442,21.6547151 0,22.5160516 Z" id="Fill-31"></path>
                <path d="M42.062068,41.4312591 L42.062068,39.5806612 L43.9710012,39.5806612 C45.4368863,39.6676952 46.1264056,39.0205674 46.0416225,37.6394654 L46.0416225,23.9226073 C48.1176835,22.8534396 50.0102978,21.5779414 51.719653,20.0949871 C52.4095475,19.4964408 51.9766284,18.3582462 51.0633341,18.3582462 L33.8776835,18.3582462 L33.8776835,14.864694 L61.3113998,14.864694 L61.3113998,16.5581055 C61.3113998,17.6430293 60.8464056,18.6810598 60.0315873,19.3974021 C57.1686565,21.914823 54.2747761,23.8117515 51.3469449,25.0874373 L51.3469449,37.6394654 C51.4319156,41.0891254 49.6646002,42.7714701 46.0416225,42.686687 L43.3174959,42.686687 C42.6240375,42.686687 42.062068,42.1245299 42.062068,41.4312591" id="Fill-33"></path>
                <path d="M85.9820305,23.6985135 C85.4677046,23.7137069 84.7729332,23.7182087 84.0931676,23.717646 C82.765524,23.7167081 81.6912919,22.6385369 81.6914795,21.3107057 C81.6914795,20.6866495 81.6963564,20.0513388 81.7113623,19.557646 L81.7113623,12.5699789 L84.6581383,12.5699789 C85.5322298,12.5699789 86.2408816,13.2784431 86.2408816,14.1525346 L86.2408816,14.8988886 L91.8660164,14.8988886 C92.9597562,14.8988886 93.8466026,15.7855475 93.8466026,16.8794748 L93.8466026,17.7458757 L86.2408816,17.7458757 L86.2408816,18.9107057 C86.3256647,20.1199906 86.8880094,20.722476 87.9232263,20.722476 L93.253871,20.722476 C94.3119719,20.722476 95.169932,21.5802485 95.169932,22.6385369 L95.169932,23.6985135 L85.9820305,23.6985135 Z M73.4298148,33.3200844 L73.4298148,33.6794748 C73.4298148,34.5530035 74.1380914,35.2612802 75.0116202,35.2612802 L87.1466729,35.2612802 L87.1466729,33.3200844 L73.4298148,33.3200844 Z M73.4298148,28.7909402 L73.4298148,30.6023353 L87.1466729,30.6023353 L87.1466729,30.4639062 C87.1466729,29.5399203 86.3978804,28.7909402 85.4738945,28.7909402 L73.4298148,28.7909402 Z M68.2533552,42.7666495 L68.2533552,25.685102 L89.5074701,25.685102 C91.0624525,25.685102 92.3227573,26.9455944 92.3227573,28.5003892 L92.3227573,37.5901899 C92.3261336,41.1983494 91.1020305,42.6754889 87.5349496,42.6372239 L84.0239531,42.6372239 L84.0239531,41.3493458 C84.0239531,40.4883845 84.7221008,39.7902368 85.5832497,39.7902368 C85.5832497,39.7902368 87.1267902,39.9309168 87.1466729,38.1078921 L87.1466729,37.9784666 L73.4298148,37.9784666 L73.4298148,42.7666495 L68.2533552,42.7666495 Z" id="Fill-35"></path>
                <path d="M115.889613,35.8838359 C115.889613,35.9781852 115.966143,36.0547151 116.060492,36.0547151 L117.701383,36.0547151 C118.693834,36.0672825 118.877468,35.7887362 118.866026,34.6315967 L118.866026,32.0847268 C118.866026,31.9903775 118.789683,31.9138476 118.695334,31.9138476 L116.060492,31.9138476 C115.966143,31.9138476 115.889613,31.9903775 115.889613,32.0847268 L115.889613,35.8838359 Z M112.913576,38.601585 L112.913576,31.6970129 C112.913576,30.3159109 114.0332,29.196286 115.414302,29.196286 L121.800797,29.196286 C121.895147,29.196286 121.971489,29.2728159 121.971489,29.3671653 L121.971489,35.0198734 C122.056835,37.6076342 120.849801,38.8593107 118.348511,38.7722767 L113.084455,38.7722767 C112.990106,38.7722767 112.913576,38.6959343 112.913576,38.601585 Z M112.78415,22.0375522 L112.78415,19.5325111 C112.78415,19.4381618 112.86068,19.3618195 112.955029,19.3618195 L115.330457,19.3618195 C115.424807,19.3618195 115.501336,19.2852896 115.501336,19.1909402 L115.501336,17.7207409 C115.501336,17.6263916 115.577866,17.5500492 115.672216,17.5500492 L118.039015,17.5500492 C118.781618,17.5500492 119.383728,18.1519719 119.383728,18.894762 L119.383728,19.1909402 C119.383728,19.2852896 119.460258,19.3618195 119.554607,19.3618195 L121.116342,19.3618195 C121.731583,19.3618195 122.23034,19.8605768 122.23034,20.4758171 L122.23034,22.0375522 C122.23034,22.1319015 122.15381,22.2084314 122.059461,22.2084314 L119.554607,22.2084314 C119.460258,22.2084314 119.383728,22.2849613 119.383728,22.3793107 L119.383728,24.4964502 C119.383728,24.5907995 119.460258,24.6671419 119.554607,24.6671419 L122.318312,24.6671419 C122.412661,24.6671419 122.489191,24.7436717 122.489191,24.8380211 L122.489191,27.3434373 C122.489191,27.4377866 122.412661,27.5143165 122.318312,27.5143165 L113.49374,27.5143165 C112.887315,27.5143165 112.395873,27.0228746 112.395873,26.4164502 L112.395873,24.8380211 C112.395873,24.7436717 112.472403,24.6671419 112.566753,24.6671419 L115.330457,24.6671419 C115.424807,24.6671419 115.501336,24.5907995 115.501336,24.4964502 L115.501336,22.3793107 C115.501336,22.2849613 115.424807,22.2084314 115.330457,22.2084314 L112.955029,22.2084314 C112.86068,22.2084314 112.78415,22.1319015 112.78415,22.0375522 Z M106.055147,42.2493224 L106.055147,38.1148324 C106.055147,38.0739414 106.070528,38.0334256 106.097163,38.002476 C107.100868,36.8355826 107.478265,36.4988886 107.478265,32.9492521 L107.478265,13.8389121 C107.478265,13.7445627 107.554795,13.6680328 107.649144,13.6680328 L124.894443,13.6680328 C126.353576,13.6680328 127.536225,14.8508699 127.536225,16.3098148 L127.536225,37.7370598 C127.70823,40.842898 126.242157,42.3089707 123.136319,42.1371536 L121.236952,42.1371536 C121.142603,42.1371536 121.066073,42.0606237 121.066073,41.9662743 L121.066073,39.3314326 C121.066073,39.2370832 121.142603,39.1605533 121.236952,39.1605533 L121.5834,39.1605533 C122.968816,39.1830621 123.273623,38.9227104 123.267245,37.6183259 C123.267245,37.6113857 123.265744,37.6040703 123.265744,37.5971301 L123.265744,18.7677749 C123.265744,17.6663447 122.372708,16.7734959 121.271278,16.7734959 L111.790199,16.7734959 C111.69585,16.7734959 111.61932,16.8500258 111.61932,16.9443751 L111.61932,31.784422 C111.872732,36.9366846 110.099226,40.4750668 106.302931,42.4031325 C106.189824,42.4605299 106.055147,42.3763095 106.055147,42.2493224 Z M100.49041,40.1837655 L100.49041,24.8380211 C100.49041,24.7436717 100.41388,24.6671419 100.319531,24.6671419 L99.7806331,24.6671419 C99.0292145,24.6671419 98.4201641,24.0580914 98.4201641,23.3066729 L98.4201641,21.8616084 C98.4201641,21.7672591 98.496694,21.6907292 98.5910434,21.6907292 L102.802626,21.6907292 C103.812708,21.6907292 104.631653,22.5096741 104.631653,23.5197562 L104.631653,32.7346682 C104.631653,33.4251254 105.416835,33.8314091 105.974115,33.4236249 C106.083283,33.3439062 106.19095,33.2615615 106.297491,33.1765909 C106.408535,33.0880563 106.572661,33.1696506 106.572661,33.311456 L106.572661,36.2413505 C106.572661,36.2874936 106.554467,36.3317608 106.521641,36.3643986 C104.947151,37.9261336 103.01796,39.2496506 100.736319,40.3388886 C100.623025,40.3929097 100.49041,40.3094396 100.49041,40.1837655 Z" id="Fill-37"></path>
                <path d="M102.289594,20.2581758 C101.779208,19.4527362 101.196792,18.5505088 100.542162,17.5520563 C99.7637327,16.3645299 100.137191,14.7658429 101.362232,14.0476249 L102.13766,13.5931348 C102.212689,13.5492427 102.308727,13.5681876 102.360685,13.6379648 C102.800356,14.2278828 103.461552,15.1332989 104.345397,16.3566518 C104.376159,16.3975428 104.406546,16.4380586 104.436558,16.4781993 C105.169219,17.4575193 104.900427,18.8538148 103.857707,19.4928769 C103.296675,19.8366987 102.767719,20.1610129 102.522185,20.3114467 C102.442467,20.3602157 102.339489,20.3369566 102.289594,20.2581758" id="Fill-39"></path>
                <path d="M65.4082626,23.6269355 L65.4082626,22.566959 C65.4082626,21.5086706 66.2660352,20.650898 67.3243236,20.650898 L72.6549683,20.650898 C73.6901852,20.650898 74.2523423,20.0484127 74.337313,18.8391278 L74.337313,17.6742978 L66.731592,17.6742978 L66.731592,16.8078968 C66.731592,15.7139695 67.6182509,14.8273107 68.7121782,14.8273107 L74.337313,14.8273107 L74.337313,14.0809566 C74.337313,13.2068652 75.0459648,12.4984009 75.9200563,12.4984009 L78.8666448,12.4984009 L78.8666448,19.486068 C78.8816506,19.9797608 78.8867151,20.6150715 78.8867151,21.2391278 C78.8867151,22.566959 77.8126706,23.6451301 76.4848394,23.646068 C75.8052614,23.6466307 75.1103025,23.642129 74.5961641,23.6269355 L65.4082626,23.6269355 Z" id="Fill-41"></path>
            </g>
            <path d="M147.069824,0.778053927 C142.190481,2.7445721 132.490129,10.6717937 134.363798,15.2262603 C136.237468,19.7807268 148.94612,19.1622978 153.8551,17.2711841 C158.76408,15.3802579 161.058101,10.1330832 159.184244,5.57861665 C157.780633,2.16722157 154.537116,0.0226963658 150.859555,0.0226963658 C149.627386,0.0226963658 148.346448,0.263540445 147.069824,0.778053927" id="Fill-44" opacity="0.5"></path>
            <path d="M151.003986,0 C146.805346,0.0106916764 143.018242,2.96046893 142.091817,7.70419695 C141.083611,12.8671512 142.448769,25.3203283 147.289097,26.2293083 C152.129238,27.1382884 158.532239,16.143306 159.619789,10.9961079 C159.76422,10.3131536 159.834748,9.63713951 159.837186,8.97538101 L159.837186,8.90710434 C159.822181,4.61223916 156.934115,0.951934349 152.715967,0.158499414 C152.155498,0.0532708089 151.597843,0.00112543962 151.045815,0 L151.003986,0 Z" id="Fill-46" opacity="0.603543931"></path>
        </g>
    </g>
</svg>