<?xml version="1.0" encoding="UTF-8"?>
<svg width="40px" height="40px" viewBox="0 0 40 40" version="1.1" xmlns="http://www.w3.org/2000/svg" xmlns:xlink="http://www.w3.org/1999/xlink">
    <!-- Generator: Sketch 48.2 (47327) - http://www.bohemiancoding.com/sketch -->
    <title>name</title>
    <desc>Created with Sketch.</desc>
    <defs></defs>
    <g id="H5-注册" stroke="none" stroke-width="1" fill="none" fill-rule="evenodd" transform="translate(-80.000000, -1483.000000)">
        <path d="M94,1502.5 C92.62,1502.5 91.5,1503.62 91.5,1505 C91.5,1506.38 92.62,1507.5 94,1507.5 C95.38,1507.5 96.5,1506.38 96.5,1505 C96.5,1503.62 95.38,1502.5 94,1502.5 Z M106,1502.5 C104.62,1502.5 103.5,1503.62 103.5,1505 C103.5,1506.38 104.62,1507.5 106,1507.5 C107.38,1507.5 108.5,1506.38 108.5,1505 C108.5,1503.62 107.38,1502.5 106,1502.5 Z M100,1483 C88.96,1483 80,1491.96 80,1503 C80,1514.04 88.96,1523 100,1523 C111.04,1523 120,1514.04 120,1503 C120,1491.96 111.04,1483 100,1483 Z M100,1519 C91.18,1519 84,1511.82 84,1503 C84,1502.42 84.04,1501.84 84.1,1501.28 C88.82,1499.18 92.56,1495.32 94.52,1490.54 C98.14,1495.66 104.1,1499 110.84,1499 C112.4,1499 113.9,1498.82 115.34,1498.48 C115.76,1499.9 116,1501.42 116,1503 C116,1511.82 108.82,1519 100,1519 Z" id="name" fill="#8492A6" fill-rule="nonzero"></path>
    </g>
</svg>