<?xml version="1.0" encoding="UTF-8"?>
<svg width="28px" height="44px" viewBox="0 0 28 44" version="1.1" xmlns="http://www.w3.org/2000/svg" xmlns:xlink="http://www.w3.org/1999/xlink">
    <!-- Generator: Sketch 48.2 (47327) - http://www.bohemiancoding.com/sketch -->
    <title>phone</title>
    <desc>Created with Sketch.</desc>
    <defs></defs>
    <g id="H5-注册" stroke="none" stroke-width="1" fill="none" fill-rule="evenodd" transform="translate(-86.000000, -1172.000000)">
        <path d="M109.997141,1172.02 L89.9828449,1172 C87.7812723,1172 86,1173.8 86,1176 L86,1212 C86,1214.2 87.7812723,1216 89.9828449,1216 L109.997141,1216 C112.198713,1216 114,1214.2 114,1212 L114,1176 C114,1173.8 112.198713,1172.02 109.997141,1172.02 Z M110.014296,1208 L90,1208 L90,1178 L110.014296,1178 L110.014296,1208 Z M95.5,1174 L104.5,1174 C104.776142,1174 105,1174.22386 105,1174.5 C105,1174.77614 104.776142,1175 104.5,1175 L95.5,1175 C95.2238576,1175 95,1174.77614 95,1174.5 C95,1174.22386 95.2238576,1174 95.5,1174 Z M100,1213.99714 C98.8954305,1213.99714 98,1213.10235 98,1211.99857 C98,1210.89479 98.8954305,1210 100,1210 C101.104569,1210 102,1210.89479 102,1211.99857 C102,1213.10235 101.104569,1213.99714 100,1213.99714 Z" id="phone" fill="#8492A6" fill-rule="nonzero"></path>
    </g>
</svg>