<?xml version="1.0" encoding="UTF-8"?>
<svg width="84px" height="84px" viewBox="0 0 84 84" version="1.1" xmlns="http://www.w3.org/2000/svg" xmlns:xlink="http://www.w3.org/1999/xlink">
    <!-- Generator: Sketch 48.2 (47327) - http://www.bohemiancoding.com/sketch -->
    <title>succeed</title>
    <desc>Created with Sketch.</desc>
    <defs></defs>
    <g id="H5-注册成功" stroke="none" stroke-width="1" fill="none" fill-rule="evenodd" transform="translate(-333.000000, -214.000000)">
        <g id="succeed" transform="translate(337.000000, 218.000000)">
            <path d="M75.4081681,31.2828725 C75.7970601,33.4632052 76,35.7079247 76,38.0000433 C76,58.9868963 58.9868096,76.0000867 37.9999567,76.0000867 C17.0131037,76.0000867 0,58.9868096 0,38.0000433 C0,17.013277 17.0131904,0 37.9999567,0 C47.3284322,0 55.8718486,3.36136794 62.4850464,8.93896721" id="Shape" stroke="#FFFFFF" stroke-width="7" stroke-linecap="round" fill-rule="nonzero"></path>
            <path d="M25.0071782,28.9752361 C22.4251222,26.4033557 19.9448221,26.0984949 18.1707079,28.1770628 C16.0494027,30.6620437 17.0815127,32.7776506 19.1152062,34.7873296 C24.5099989,40.1207635 29.8342746,45.5242054 35.2242848,50.8622183 C38.2728917,53.8812142 39.968145,53.861677 43.0784158,50.7611747 C53.0099954,40.8622588 66.9230553,26.9445181 76.821259,17.0126332 C79.4012799,14.4244719 79.7121442,11.9542456 77.635001,10.1751454 C75.1580589,8.05353484 73.0424518,9.07353597 71.022699,11.1047872 C62.6757641,19.5002597 50.2910778,31.8572684 41.9128021,40.2218071 C41.0381084,41.0948727 40.1162,41.9200113 38.9481439,43.0195856 C34.2066241,38.2376688 29.6313734,33.5819293 25.0071782,28.9752361 Z" id="Path" fill="#FFFFFF"></path>
        </g>
    </g>
</svg>